<svg width="127" height="28" viewBox="0 0 127 28" fill="none" xmlns="http://www.w3.org/2000/svg">
<path d="M5.55652 13.91H16.9805V18.33H5.55652V13.91ZM5.96452 27H0.456522V3.2H18.4425V7.62H5.96452V27ZM29.0837 27.272C27.5651 27.272 26.2051 26.9773 25.0037 26.388C23.8251 25.7987 22.9071 24.9033 22.2497 23.702C21.5924 22.478 21.2637 20.9253 21.2637 19.044V8.708H26.5677V18.262C26.5677 19.7807 26.8851 20.9027 27.5197 21.628C28.1771 22.3307 29.0951 22.682 30.2737 22.682C31.0897 22.682 31.8151 22.512 32.4497 22.172C33.0844 21.8093 33.5831 21.2653 33.9457 20.54C34.3084 19.792 34.4897 18.8627 34.4897 17.752V8.708H39.7937V27H34.7617V21.968L35.6797 23.43C35.0677 24.6993 34.1611 25.6627 32.9597 26.32C31.7811 26.9547 30.4891 27.272 29.0837 27.272ZM44.7075 27V8.708H49.7735V13.876L49.0595 12.38C49.6035 11.088 50.4762 10.1133 51.6775 9.456C52.8789 8.776 54.3409 8.436 56.0635 8.436V13.332C55.8369 13.3093 55.6329 13.298 55.4515 13.298C55.2702 13.2753 55.0775 13.264 54.8735 13.264C53.4229 13.264 52.2442 13.6833 51.3375 14.522C50.4535 15.338 50.0115 16.6187 50.0115 18.364V27H44.7075ZM70.3685 8.436C71.8192 8.436 73.1112 8.73067 74.2445 9.32C75.4005 9.88667 76.3072 10.7707 76.9645 11.972C77.6218 13.1507 77.9505 14.6693 77.9505 16.528V27H72.6465V17.344C72.6465 15.8707 72.3178 14.7827 71.6605 14.08C71.0258 13.3773 70.1192 13.026 68.9405 13.026C68.1018 13.026 67.3425 13.2073 66.6625 13.57C66.0052 13.91 65.4838 14.4427 65.0985 15.168C64.7358 15.8933 64.5545 16.8227 64.5545 17.956V27H59.2505V8.708H64.3165V13.774L63.3645 12.244C64.0218 11.02 64.9625 10.0793 66.1865 9.422C67.4105 8.76467 68.8045 8.436 70.3685 8.436ZM82.7583 27V8.708H88.0623V27H82.7583ZM85.4103 6.158C84.4356 6.158 83.6423 5.87467 83.0303 5.308C82.4183 4.74133 82.1123 4.03867 82.1123 3.2C82.1123 2.36133 82.4183 1.65867 83.0303 1.092C83.6423 0.525332 84.4356 0.241998 85.4103 0.241998C86.385 0.241998 87.1783 0.513999 87.7903 1.058C88.4023 1.57933 88.7083 2.25933 88.7083 3.098C88.7083 3.982 88.4023 4.71867 87.7903 5.308C87.201 5.87467 86.4076 6.158 85.4103 6.158ZM92.9849 27V8.708H98.0509V13.876L97.3369 12.38C97.8809 11.088 98.7535 10.1133 99.9549 9.456C101.156 8.776 102.618 8.436 104.341 8.436V13.332C104.114 13.3093 103.91 13.298 103.729 13.298C103.548 13.2753 103.355 13.264 103.151 13.264C101.7 13.264 100.522 13.6833 99.6149 14.522C98.7309 15.338 98.2889 16.6187 98.2889 18.364V27H92.9849ZM116.066 27.272C114.116 27.272 112.382 26.864 110.864 26.048C109.368 25.232 108.178 24.1213 107.294 22.716C106.432 21.288 106.002 19.6673 106.002 17.854C106.002 16.018 106.432 14.3973 107.294 12.992C108.178 11.564 109.368 10.4533 110.864 9.66C112.382 8.844 114.116 8.436 116.066 8.436C117.992 8.436 119.715 8.844 121.234 9.66C122.752 10.4533 123.942 11.5527 124.804 12.958C125.665 14.3633 126.096 15.9953 126.096 17.854C126.096 19.6673 125.665 21.288 124.804 22.716C123.942 24.1213 122.752 25.232 121.234 26.048C119.715 26.864 117.992 27.272 116.066 27.272ZM116.066 22.92C116.95 22.92 117.743 22.716 118.446 22.308C119.148 21.9 119.704 21.322 120.112 20.574C120.52 19.8033 120.724 18.8967 120.724 17.854C120.724 16.7887 120.52 15.882 120.112 15.134C119.704 14.386 119.148 13.808 118.446 13.4C117.743 12.992 116.95 12.788 116.066 12.788C115.182 12.788 114.388 12.992 113.686 13.4C112.983 13.808 112.416 14.386 111.986 15.134C111.578 15.882 111.374 16.7887 111.374 17.854C111.374 18.8967 111.578 19.8033 111.986 20.574C112.416 21.322 112.983 21.9 113.686 22.308C114.388 22.716 115.182 22.92 116.066 22.92Z" fill="black"/>
</svg>
