<svg width="27" height="28" viewBox="0 0 27 28" fill="none" xmlns="http://www.w3.org/2000/svg">
<path d="M24.3552 19.1926H8.7765L9.5587 17.5273L22.5554 17.5027C22.9949 17.5027 23.3716 17.1746 23.4501 16.7207L25.2499 6.19062C25.297 5.91445 25.2264 5.63008 25.0537 5.41406C24.9684 5.30775 24.862 5.22211 24.7418 5.16309C24.6216 5.10407 24.4906 5.07308 24.3579 5.07227L7.82425 5.01484L7.68298 4.32031C7.59403 3.87734 7.21208 3.55469 6.77781 3.55469H2.73598C2.49105 3.55469 2.25616 3.65638 2.08298 3.8374C1.90979 4.01841 1.8125 4.26393 1.8125 4.51992C1.8125 4.77592 1.90979 5.02143 2.08298 5.20245C2.25616 5.38346 2.49105 5.48516 2.73598 5.48516H6.02962L6.64701 8.55312L8.16695 16.2449L6.21013 19.5836C6.10851 19.727 6.0473 19.8972 6.03343 20.075C6.01956 20.2528 6.05358 20.4312 6.13164 20.5898C6.28861 20.9152 6.60515 21.1203 6.95571 21.1203H8.5986C8.24836 21.6065 8.05918 22.1988 8.05969 22.8074C8.05969 24.3551 9.26309 25.6129 10.7438 25.6129C12.2245 25.6129 13.4279 24.3551 13.4279 22.8074C13.4279 22.1977 13.2343 21.6043 12.889 21.1203H17.1035C16.7532 21.6065 16.564 22.1988 16.5646 22.8074C16.5646 24.3551 17.768 25.6129 19.2487 25.6129C20.7294 25.6129 21.9328 24.3551 21.9328 22.8074C21.9328 22.1977 21.7392 21.6043 21.3938 21.1203H24.3579C24.8654 21.1203 25.2813 20.6883 25.2813 20.1551C25.2798 19.8994 25.1816 19.6546 25.0081 19.4743C24.8346 19.294 24.5999 19.1927 24.3552 19.1926ZM8.20881 6.91797L23.2722 6.96992L21.7967 15.6051L9.9642 15.627L8.20881 6.91797ZM10.7438 23.6715C10.2886 23.6715 9.91711 23.2832 9.91711 22.8074C9.91711 22.3316 10.2886 21.9434 10.7438 21.9434C11.199 21.9434 11.5705 22.3316 11.5705 22.8074C11.5705 23.0366 11.4834 23.2564 11.3283 23.4184C11.1733 23.5805 10.963 23.6715 10.7438 23.6715ZM19.2487 23.6715C18.7935 23.6715 18.422 23.2832 18.422 22.8074C18.422 22.3316 18.7935 21.9434 19.2487 21.9434C19.7039 21.9434 20.0753 22.3316 20.0753 22.8074C20.0753 23.0366 19.9882 23.2564 19.8332 23.4184C19.6782 23.5805 19.4679 23.6715 19.2487 23.6715Z" fill="black"/>
</svg>
