<svg width="24" height="20" viewBox="0 0 24 20" fill="none" xmlns="http://www.w3.org/2000/svg">
<path d="M21.0099 10V4.16667H23.2423V11.1667H21.0099M21.0099 15.8333H23.2423V13.5H21.0099M9.848 11.1667C12.8282 11.1667 18.7775 12.73 18.7775 15.8333V19.3333H0.918457V15.8333C0.918457 12.73 6.86777 11.1667 9.848 11.1667ZM9.848 0.666668C11.0321 0.666668 12.1678 1.15833 13.0051 2.0335C13.8424 2.90867 14.3128 4.09566 14.3128 5.33333C14.3128 6.57101 13.8424 7.758 13.0051 8.63317C12.1678 9.50834 11.0321 10 9.848 10C8.66387 10 7.52824 9.50834 6.69093 8.63317C5.85362 7.758 5.38323 6.57101 5.38323 5.33333C5.38323 4.09566 5.85362 2.90867 6.69093 2.0335C7.52824 1.15833 8.66387 0.666668 9.848 0.666668ZM9.848 13.3833C6.53291 13.3833 3.03922 15.0867 3.03922 15.8333V17.1167H16.6568V15.8333C16.6568 15.0867 13.1631 13.3833 9.848 13.3833ZM9.848 2.88333C9.22633 2.88333 8.63013 3.14146 8.19054 3.60092C7.75095 4.06039 7.504 4.68355 7.504 5.33333C7.504 5.98311 7.75095 6.60628 8.19054 7.06575C8.63013 7.52521 9.22633 7.78333 9.848 7.78333C10.4697 7.78333 11.0659 7.52521 11.5055 7.06575C11.9451 6.60628 12.192 5.98311 12.192 5.33333C12.192 4.68355 11.9451 4.06039 11.5055 3.60092C11.0659 3.14146 10.4697 2.88333 9.848 2.88333Z" fill="black"/>
</svg>
